<svg fill="none" height="24" viewBox="0 0 24 24" width="24" xmlns="http://www.w3.org/2000/svg"><path d="m3 6c0 1.65685 1.34315 3 3 3s3-1.34315 3-3-1.34315-3-3-3-3 1.34315-3 3z" fill="#323232" opacity=".1"/><path d="m3 18c0 1.6569 1.34315 3 3 3s3-1.3431 3-3-1.34315-3-3-3-3 1.3431-3 3z" fill="#323232" opacity=".1"/><path d="m15 6c0 1.65685 1.3431 3 3 3s3-1.34315 3-3-1.3431-3-3-3-3 1.34315-3 3z" fill="#323232" opacity=".1"/><g stroke="#323232" stroke-width="2"><path d="m3 6c0 1.65685 1.34315 3 3 3s3-1.34315 3-3-1.34315-3-3-3-3 1.34315-3 3z"/><path d="m3 18c0 1.6569 1.34315 3 3 3s3-1.3431 3-3-1.34315-3-3-3-3 1.3431-3 3z"/><path d="m15 6c0 1.65685 1.3431 3 3 3s3-1.34315 3-3-1.3431-3-3-3-3 1.34315-3 3z"/><path d="m6 15v-6" stroke-linecap="round" stroke-linejoin="round"/><path d="m18 9v3.3242c0 4.674-1.0576 5.6758-5.992 5.6758h-3.008" stroke-linecap="round"/></g></svg>